.
..............................Site Info...........................

 -   http://www.scenetime.com  *_*   


Scenetime .Always on time . friendly online private torrent community ..

     We care to share . Join us on  http://www.scenetime.com 

    Be the first to get new release at  http://www.scenetime.com

        Seed back for speed


...................................NFO:.................................................Title:              The Holy Land
XviD Release:       2012.04.15
DVD Release Date:   2007.09.04
Theatrical Release: 2003.07.11
IMDB:  http://www.imdb.com/title/tt0283387/
Plot: A coming-of-age saga set against the tense backdrop of Arab-Israeli politics. Mendy is a young Rabbinical student whose mind is too full of curiosity about the world that exists outside the restrictions of Orthodox Judaism. Recognizing his distraction, Mendy's teacher suggests that he visit a prostitute to get it out of his system. But on a fateful night, when he meets Sacha, a captivating Russian expatriate, who works in a Tel Aviv bordello, his appetite for outside experience only grows stronger.


RAR Count: 37x20MB


Complete name                    : The.Holy.Land.2001.DVDRip.XviD.avi
Format                           : AVI
Format/Info                      : Audio Video Interleave
File size                        : 695 MiB
Duration                         : 1h 42mn
Overall bit rate                 : 949 Kbps
Writing application              : MEncoder 1.0rc4-4.2.1
Writing library                  : MPlayer

Video
ID                               : 0
Format                           : MPEG-4 Visual
Format profile                   : Advanced Simple@L5
Format settings, BVOP            : Yes
Format settings, QPel            : No
Format settings, GMC             : No warppoints
Format settings, Matrix          : Default (H.263)
Codec ID                         : XVID
Codec ID/Hint                    : XviD
Duration                         : 1h 42mn
Bit rate                         : 751 Kbps
Width                            : 640 pixels
Height                           : 352 pixels
Display aspect ratio             : 16:9
Frame rate                       : 29.970 fps
Color space                      : YUV
Chroma subsampling               : 4:2:0
Bit depth                        : 8 bits
Scan type                        : Progressive
Compression mode                 : Lossy
Bits/(Pixel*Frame)               : 0.111
Stream size                      : 550 MiB (79%)
Writing library                  : XviD 64

Audio
ID                               : 1
Format                           : AC-3
Format/Info                      : Audio Coding 3
Mode extension                   : CM (complete main)
Codec ID                         : 2000
Duration                         : 1h 42mn
Bit rate mode                    : Constant
Bit rate                         : 192 Kbps
Channel(s)                       : 2 channels
Channel positions                : Front: L R
Sampling rate                    : 48.0 KHz
Bit depth                        : 16 bits
Compression mode                 : Lossy
Delay relative to video          : 33ms
Stream size                      : 141 MiB (20%)
Alignment                        : Split accross interleaves
Interleave, duration             : 500 ms (14.98 video frames)
Interleave, preload duration     : 500 ms